<?xml version="1.0" encoding="UTF-8" standalone="no"?>
<!-- Generator: Adobe Illustrator 19.2.1, SVG Export Plug-In . SVG Version: 6.00 Build 0)  -->

<svg
   xmlns:dc="http://purl.org/dc/elements/1.1/"
   xmlns:cc="http://creativecommons.org/ns#"
   xmlns:rdf="http://www.w3.org/1999/02/22-rdf-syntax-ns#"
   xmlns:svg="http://www.w3.org/2000/svg"
   xmlns="http://www.w3.org/2000/svg"
   xmlns:sodipodi="http://sodipodi.sourceforge.net/DTD/sodipodi-0.dtd"
   xmlns:inkscape="http://www.inkscape.org/namespaces/inkscape"
   version="1.1"
   x="0px"
   y="0px"
   viewBox="0 0 524.90002 174.7"
   xml:space="preserve"
   id="svg2"
   inkscape:version="0.91 r13725"
   sodipodi:docname="LogoW.svg"
   width="524.90002"
   height="174.7"><metadata
     id="metadata110"><rdf:RDF><cc:Work
         rdf:about=""><dc:format>image/svg+xml</dc:format><dc:type
           rdf:resource="http://purl.org/dc/dcmitype/StillImage" /><dc:title></dc:title></cc:Work></rdf:RDF></metadata><defs
     id="defs108" /><sodipodi:namedview
     pagecolor="#ffffff"
     bordercolor="#666666"
     borderopacity="1"
     objecttolerance="10"
     gridtolerance="10"
     guidetolerance="10"
     inkscape:pageopacity="0"
     inkscape:pageshadow="2"
     inkscape:window-width="1920"
     inkscape:window-height="1027"
     id="namedview106"
     showgrid="false"
     inkscape:zoom="1.5424837"
     inkscape:cx="332.62698"
     inkscape:cy="85.63025"
     inkscape:window-x="-8"
     inkscape:window-y="-8"
     inkscape:window-maximized="1"
     inkscape:current-layer="svg2" /><style
     type="text/css"
     id="style4">
	.st0{fill:#C2C3C9;}
	.st1{fill:#7BAC42;}
	.st2{fill:#FFFFFF;}
</style><g
     id="g4286"
     transform="translate(-143.7,-305)"
     style="fill:#ffffff;fill-opacity:1"
     inkscape:export-filename="C:\Users\Saulo\OneDrive - Sistemas Mecatronicos\Sistemas Mecatronicos\SMecatro - Documents\Logo\logo_w_200x67.png"
     inkscape:export-xdpi="34.290001"
     inkscape:export-ydpi="34.290001"><polygon
       class="st1"
       points="313,354.3 301.7,347.7 228.3,389 177.7,359.7 227.7,331 256.3,346.3 279,334.3 227.7,305 143.7,353.7 143.7,367.7 217,409 217,466.3 239,479.7 239,408.3 290.3,379.7 290.3,439 261.7,454.3 261.7,479.7 313,451.7 "
       id="polygon58"
       style="fill:#ffffff;fill-opacity:1"
       transform="translate(-6.1e-6,0)"
       inkscape:export-filename="C:\Users\Saulo\OneDrive - Sistemas Mecatronicos\Sistemas Mecatronicos\SMecatro - Documents\Logo\isotipo_w_1000x1000.png"
       inkscape:export-xdpi="515.16998"
       inkscape:export-ydpi="515.16998" /><polygon
       class="st1"
       points="165.7,464.3 143.7,451.7 143.7,392.3 165.7,406.3 "
       id="polygon60"
       style="fill:#ffffff;fill-opacity:1" /><g
       id="g62"
       style="fill:#ffffff;fill-opacity:1"><path
         class="st2"
         d="m 344.6,414.4 c -8,0 -14.1,-1.7 -19.2,-7 l 6.7,-6.7 c 3.3,3.3 7.8,4.4 12.7,4.4 6.1,0 9.3,-2.3 9.3,-6.5 0,-1.9 -0.5,-3.4 -1.6,-4.4 -1,-1 -2.2,-1.5 -4.7,-1.8 l -6.4,-0.9 c -4.5,-0.7 -7.8,-2.1 -10.2,-4.4 -2.5,-2.5 -3.8,-5.9 -3.8,-10.4 0,-9.4 7,-16 18.4,-16 7.3,0 12.5,1.8 17,6.1 l -6.5,6.4 c -3.3,-3.2 -7.3,-3.6 -10.8,-3.6 -5.5,0 -8.1,3 -8.1,6.7 0,1.3 0.4,2.7 1.6,3.8 1,1 2.7,1.8 4.9,2.1 l 6.2,0.9 c 4.8,0.7 7.8,2 10.1,4.1 2.8,2.7 4.1,6.5 4.1,11.2 -0.1,10.3 -8.6,16 -19.7,16 z"
         id="path64"
         inkscape:connector-curvature="0"
         style="fill:#ffffff;fill-opacity:1" /><path
         class="st2"
         d="m 373.9,414 0,-52.7 10.3,0 0,52.7 -10.3,0 z"
         id="path66"
         inkscape:connector-curvature="0"
         style="fill:#ffffff;fill-opacity:1" /><path
         class="st2"
         d="m 411,414.4 c -8,0 -14.1,-1.7 -19.2,-7 l 6.7,-6.7 c 3.3,3.3 7.8,4.4 12.7,4.4 6.1,0 9.3,-2.3 9.3,-6.5 0,-1.9 -0.5,-3.4 -1.6,-4.4 -1,-1 -2.2,-1.5 -4.7,-1.8 l -6.4,-0.9 c -4.5,-0.7 -7.8,-2.1 -10.2,-4.4 -2.5,-2.5 -3.8,-5.9 -3.8,-10.4 0,-9.4 7,-16 18.4,-16 7.3,0 12.5,1.8 17,6.1 l -6.5,6.4 c -3.3,-3.2 -7.3,-3.6 -10.8,-3.6 -5.5,0 -8.1,3 -8.1,6.7 0,1.3 0.4,2.7 1.6,3.8 1,1 2.7,1.8 4.9,2.1 l 6.2,0.9 c 4.8,0.7 7.8,2 10.1,4.1 2.8,2.7 4.1,6.5 4.1,11.2 -0.2,10.3 -8.7,16 -19.7,16 z"
         id="path68"
         inkscape:connector-curvature="0"
         style="fill:#ffffff;fill-opacity:1" /><path
         class="st2"
         d="m 460.3,370.5 0,43.5 -10.3,0 0,-43.5 -13.8,0 0,-9.2 37.8,0 0,9.2 -13.7,0 z"
         id="path70"
         inkscape:connector-curvature="0"
         style="fill:#ffffff;fill-opacity:1" /><path
         class="st2"
         d="m 482.4,414 0,-52.7 34.7,0 0,9.2 -24.4,0 0,12.4 20.8,0 0,9.2 -20.8,0 0,12.8 24.4,0 0,9.2 -34.7,0 z"
         id="path72"
         inkscape:connector-curvature="0"
         style="fill:#ffffff;fill-opacity:1" /><path
         class="st2"
         d="m 564.6,414 0,-30.7 -10.1,20 -7,0 -10.1,-20 0,30.7 -10.3,0 0,-52.7 10.1,0 13.8,28.5 13.7,-28.5 10.1,0 0,52.7 -10.2,0 z"
         id="path74"
         inkscape:connector-curvature="0"
         style="fill:#ffffff;fill-opacity:1" /><path
         class="st2"
         d="m 617.2,414 -3.1,-9.3 -18.7,0 -3.2,9.3 -10.7,0 19.2,-52.7 8.1,0 19.2,52.7 -10.8,0 z m -12.3,-37.2 -6.7,19.2 13.1,0 -6.4,-19.2 z"
         id="path76"
         inkscape:connector-curvature="0"
         style="fill:#ffffff;fill-opacity:1" /><path
         class="st2"
         d="m 648.9,414.4 c -8,0 -14.1,-1.7 -19.2,-7 l 6.7,-6.7 c 3.3,3.3 7.8,4.4 12.7,4.4 6.1,0 9.3,-2.3 9.3,-6.5 0,-1.9 -0.5,-3.4 -1.6,-4.4 -1,-1 -2.2,-1.5 -4.7,-1.8 l -6.4,-0.9 c -4.5,-0.7 -7.8,-2.1 -10.2,-4.4 -2.5,-2.5 -3.8,-5.9 -3.8,-10.4 0,-9.4 7,-16 18.4,-16 7.3,0 12.5,1.8 17,6.1 l -6.5,6.4 c -3.3,-3.2 -7.3,-3.6 -10.8,-3.6 -5.5,0 -8.1,3 -8.1,6.7 0,1.3 0.4,2.7 1.6,3.8 1,1 2.7,1.8 4.9,2.1 l 6.2,0.9 c 4.8,0.7 7.8,2 10.1,4.1 2.8,2.7 4.1,6.5 4.1,11.2 -0.1,10.3 -8.6,16 -19.7,16 z"
         id="path78"
         inkscape:connector-curvature="0"
         style="fill:#ffffff;fill-opacity:1" /></g><g
       id="g80"
       style="fill:#ffffff;fill-opacity:1"><path
         class="st1"
         d="m 357.2,452 0,-15.7 -5.4,11.5 -2.6,0 -5.5,-11.5 0,15.7 -3.6,0 0,-23.5 3.6,0 6.9,14.6 6.7,-14.6 3.6,0 0,23.5 -3.7,0 z"
         id="path82"
         inkscape:connector-curvature="0"
         style="fill:#ffffff;fill-opacity:1" /><path
         class="st1"
         d="m 374.2,452 0,-23.5 15,0 0,3.2 -11.5,0 0,6.9 9.8,0 0,3.2 -9.8,0 0,7.1 11.5,0 0,3.2 -15,0 z"
         id="path84"
         inkscape:connector-curvature="0"
         style="fill:#ffffff;fill-opacity:1" /><path
         class="st1"
         d="m 409,452.2 c -2.4,0 -4.6,-0.9 -6.2,-2.5 -2.3,-2.3 -2.3,-4.9 -2.3,-9.4 0,-4.5 0,-7.1 2.3,-9.4 1.6,-1.6 3.7,-2.5 6.2,-2.5 4.3,0 7.6,2.5 8.4,7.2 l -3.6,0 c -0.6,-2.4 -2.1,-4 -4.8,-4 -1.4,0 -2.6,0.5 -3.5,1.4 -1.2,1.3 -1.4,2.6 -1.4,7.3 0,4.7 0.3,6.1 1.4,7.3 0.8,0.9 2.1,1.4 3.5,1.4 2.6,0 4.2,-1.7 4.8,-4 l 3.6,0 c -0.8,4.7 -4.1,7.2 -8.4,7.2 z"
         id="path86"
         inkscape:connector-curvature="0"
         style="fill:#ffffff;fill-opacity:1" /><path
         class="st1"
         d="m 442.7,452 -1.6,-4.7 -9.3,0 -1.6,4.7 -3.8,0 8.6,-23.5 2.9,0 8.6,23.5 -3.8,0 z m -6.2,-18.2 -3.7,10.4 7.2,0 -3.5,-10.4 z"
         id="path88"
         inkscape:connector-curvature="0"
         style="fill:#ffffff;fill-opacity:1" /><path
         class="st1"
         d="m 463.1,431.7 0,20.3 -3.6,0 0,-20.3 -6.5,0 0,-3.2 16.5,0 0,3.2 -6.4,0 z"
         id="path90"
         inkscape:connector-curvature="0"
         style="fill:#ffffff;fill-opacity:1" /><path
         class="st1"
         d="m 493.9,452 -5,-9.9 -4.5,0 0,9.9 -3.6,0 0,-23.5 9.1,0 c 4.5,0 7.3,2.9 7.3,6.9 0,3.4 -2,5.5 -4.7,6.2 l 5.4,10.4 -4,0 z m -4.1,-20.3 -5.3,0 0,7.4 5.3,0 c 2.4,0 4,-1.4 4,-3.7 0,-2.3 -1.6,-3.7 -4,-3.7 z"
         id="path92"
         inkscape:connector-curvature="0"
         style="fill:#ffffff;fill-opacity:1" /><path
         class="st1"
         d="m 523.7,449.7 c -1.6,1.6 -3.7,2.5 -6.2,2.5 -2.5,0 -4.6,-0.9 -6.2,-2.5 -2.3,-2.3 -2.3,-4.9 -2.3,-9.4 0,-4.5 0,-7.1 2.3,-9.4 1.6,-1.6 3.7,-2.5 6.2,-2.5 2.5,0 4.6,0.9 6.2,2.5 2.3,2.3 2.2,4.9 2.2,9.4 0,4.5 0.1,7.1 -2.2,9.4 z M 521,433 c -0.8,-0.9 -2.1,-1.5 -3.5,-1.5 -1.4,0 -2.7,0.6 -3.5,1.5 -1.2,1.3 -1.4,2.6 -1.4,7.3 0,4.7 0.2,6 1.4,7.3 0.8,0.9 2.1,1.5 3.5,1.5 1.4,0 2.7,-0.6 3.5,-1.5 1.2,-1.3 1.4,-2.6 1.4,-7.3 0,-4.8 -0.3,-6.1 -1.4,-7.3 z m -2.7,-6.8 -2.5,0 2.5,-5.3 3.7,0 -3.7,5.3 z"
         id="path94"
         inkscape:connector-curvature="0"
         style="fill:#ffffff;fill-opacity:1" /><path
         class="st1"
         d="m 553,452 -10.9,-16.5 0,16.5 -3.6,0 0,-23.5 3.3,0 10.9,16.5 0,-16.5 3.6,0 0,23.5 -3.3,0 z"
         id="path96"
         inkscape:connector-curvature="0"
         style="fill:#ffffff;fill-opacity:1" /><path
         class="st1"
         d="m 569.7,452 0,-23.5 3.6,0 0,23.5 -3.6,0 z"
         id="path98"
         inkscape:connector-curvature="0"
         style="fill:#ffffff;fill-opacity:1" /><path
         class="st1"
         d="m 594.3,452.2 c -2.4,0 -4.6,-0.9 -6.2,-2.5 -2.3,-2.3 -2.3,-4.9 -2.3,-9.4 0,-4.5 0,-7.1 2.3,-9.4 1.6,-1.6 3.7,-2.5 6.2,-2.5 4.3,0 7.6,2.5 8.4,7.2 l -3.6,0 c -0.6,-2.4 -2.1,-4 -4.8,-4 -1.4,0 -2.6,0.5 -3.5,1.4 -1.2,1.3 -1.4,2.6 -1.4,7.3 0,4.7 0.3,6.1 1.4,7.3 0.8,0.9 2.1,1.4 3.5,1.4 2.6,0 4.2,-1.7 4.8,-4 l 3.6,0 c -0.8,4.7 -4.1,7.2 -8.4,7.2 z"
         id="path100"
         inkscape:connector-curvature="0"
         style="fill:#ffffff;fill-opacity:1" /><path
         class="st1"
         d="m 628.6,449.7 c -1.6,1.6 -3.7,2.5 -6.2,2.5 -2.5,0 -4.6,-0.9 -6.2,-2.5 -2.3,-2.3 -2.3,-4.9 -2.3,-9.4 0,-4.5 0,-7.1 2.3,-9.4 1.6,-1.6 3.7,-2.5 6.2,-2.5 2.5,0 4.6,0.9 6.2,2.5 2.3,2.3 2.2,4.9 2.2,9.4 0,4.5 0.1,7.1 -2.2,9.4 z M 625.8,433 c -0.8,-0.9 -2.1,-1.5 -3.5,-1.5 -1.4,0 -2.7,0.6 -3.5,1.5 -1.2,1.3 -1.4,2.6 -1.4,7.3 0,4.7 0.2,6 1.4,7.3 0.8,0.9 2.1,1.5 3.5,1.5 1.4,0 2.7,-0.6 3.5,-1.5 1.2,-1.3 1.4,-2.6 1.4,-7.3 0,-4.8 -0.2,-6.1 -1.4,-7.3 z"
         id="path102"
         inkscape:connector-curvature="0"
         style="fill:#ffffff;fill-opacity:1" /><path
         class="st1"
         d="m 649.6,452.2 c -3.5,0 -6.1,-0.8 -8.3,-3.1 l 2.4,-2.3 c 1.7,1.7 3.6,2.2 6,2.2 3.1,0 4.9,-1.3 4.9,-3.6 0,-1 -0.3,-1.9 -0.9,-2.4 -0.6,-0.6 -1.2,-0.8 -2.6,-1 l -2.8,-0.4 c -1.9,-0.3 -3.4,-0.9 -4.5,-1.9 -1.2,-1.1 -1.7,-2.6 -1.7,-4.5 0,-4.1 3,-6.9 7.9,-6.9 3.1,0 5.3,0.8 7.3,2.7 l -2.3,2.2 c -1.5,-1.4 -3.1,-1.8 -5.1,-1.8 -2.8,0 -4.3,1.6 -4.3,3.7 0,0.9 0.3,1.6 0.9,2.2 0.6,0.5 1.6,0.9 2.6,1.1 l 2.7,0.4 c 2.2,0.3 3.4,0.9 4.4,1.7 1.3,1.1 1.9,2.8 1.9,4.8 0,4.3 -3.5,6.9 -8.5,6.9 z"
         id="path104"
         inkscape:connector-curvature="0"
         style="fill:#ffffff;fill-opacity:1" /></g></g></svg>